<svg width="24" height="24" viewBox="0 0 24 24" fill="none" xmlns="http://www.w3.org/2000/svg">
<path fill-rule="evenodd" clip-rule="evenodd" d="M16.0001 12C16.0001 14.2092 14.2092 16 12.0001 16C9.79095 16 8.00009 14.2092 8.00009 12C8.00009 9.79087 9.79095 8.00001 12.0001 8.00001C14.2092 8.00001 16.0001 9.79087 16.0001 12ZM14.7001 12C14.7001 13.4912 13.4913 14.7 12.0001 14.7C10.5089 14.7 9.30009 13.4912 9.30009 12C9.30009 10.5088 10.5089 9.30001 12.0001 9.30001C13.4913 9.30001 14.7001 10.5088 14.7001 12Z" fill="#505050"/>
<path fill-rule="evenodd" clip-rule="evenodd" d="M10.9831 3.00494C10.0974 3.00494 9.34736 3.65809 9.22559 4.5354C9.07458 5.6234 7.93986 6.27853 6.92212 5.86531C6.10146 5.53211 5.16078 5.85512 4.71793 6.62217L3.76119 8.27928C3.32371 9.03703 3.50389 10.0006 4.18562 10.549C5.06722 11.2583 5.05272 12.6261 4.14762 13.3307C3.44873 13.8748 3.25812 14.851 3.70098 15.618L4.65772 17.2751C5.0952 18.0329 6.01974 18.3586 6.83558 18.0424C7.89061 17.6336 9.06789 18.33 9.22559 19.4662C9.34736 20.3435 10.0974 20.9966 10.9831 20.9966H12.8966C13.7716 20.9966 14.5159 20.3588 14.6501 19.4942C14.8324 18.3184 16.0551 17.6125 17.1646 18.0424C17.9804 18.3586 18.905 18.0329 19.3425 17.2751L20.2992 15.618C20.7421 14.851 20.5514 13.8748 19.8526 13.3307C18.9475 12.6261 18.933 11.2583 19.8146 10.549C20.4963 10.0006 20.6765 9.03703 20.239 8.27929L19.2823 6.62217C18.8394 5.85512 17.8987 5.53211 17.0781 5.86531C16.0153 6.29682 14.8235 5.62549 14.6501 4.50738C14.5159 3.64275 13.7716 3.00494 12.8966 3.00494H10.9831ZM10.5132 4.71413C10.5458 4.47957 10.7463 4.30494 10.9831 4.30494L12.8966 4.30494C13.1306 4.30494 13.3296 4.47547 13.3654 4.70663C13.6698 6.66888 15.7417 7.81096 17.5671 7.06981C17.7865 6.98073 18.038 7.06709 18.1564 7.27217L19.1132 8.92928C19.2301 9.13187 19.182 9.38948 18.9997 9.53612C17.4525 10.7808 17.4994 13.1462 19.054 14.3565C19.2408 14.502 19.2918 14.7629 19.1734 14.968L18.2166 16.6251C18.0997 16.8277 17.8525 16.9148 17.6344 16.8303C15.7508 16.1003 13.675 17.2988 13.3654 19.295C13.3296 19.5261 13.1305 19.6966 12.8966 19.6966H10.9831C10.7463 19.6966 10.5458 19.522 10.5132 19.2875C10.2424 17.336 8.21735 16.1127 6.36582 16.8303C6.1477 16.9148 5.90052 16.8277 5.78355 16.6251L4.82681 14.968C4.70841 14.7629 4.75937 14.502 4.94623 14.3565C6.50078 13.1462 6.54768 10.7808 5.0005 9.53612C4.81823 9.38948 4.77006 9.13187 4.88702 8.92928L5.84376 7.27217C5.96216 7.06709 6.21366 6.98073 6.43307 7.06981C8.23581 7.80175 10.2458 6.64132 10.5132 4.71413Z" fill="#505050"/>
</svg>
