<svg width="16" height="16" viewBox="0 0 16 16" fill="none" xmlns="http://www.w3.org/2000/svg">
<path fill-rule="evenodd" clip-rule="evenodd" d="M0 3C0 1.34315 1.34315 0 3 0H13C14.6569 0 16 1.34315 16 3V9C16 10.6569 14.6569 12 13 12H5.52219L2.1121 14.7281C1.26091 15.409 0 14.803 0 13.7129V3ZM1.3 13.7129L5.06617 10.7H13C13.9389 10.7 14.7 9.93888 14.7 9V3C14.7 2.06112 13.9389 1.3 13 1.3H3C2.06112 1.3 1.3 2.06112 1.3 3L1.3 13.7129ZM4.49219 4.64356C4.49219 4.28458 4.7832 3.99356 5.14219 3.99356H10.8579C11.2169 3.99356 11.5079 4.28458 11.5079 4.64356C11.5079 5.00255 11.2169 5.29356 10.8579 5.29356L5.14219 5.29356C4.7832 5.29356 4.49219 5.00255 4.49219 4.64356ZM4.49219 7.63611C4.49219 7.27713 4.7832 6.98611 5.14219 6.98611L8.79121 6.98611C9.1502 6.98611 9.44121 7.27713 9.44121 7.63611C9.44121 7.9951 9.1502 8.28611 8.79121 8.28611H5.14219C4.7832 8.28611 4.49219 7.9951 4.49219 7.63611Z" fill="#505050"/>
</svg>
